<svg width="22" height="22" viewBox="0 0 22 22" fill="currentColor" xmlns="http://www.w3.org/2000/svg">
<g id="Outline / Arrows / Double Alt Arrow Right">
<path id="Vector (Stroke)" fill-rule="evenodd" clip-rule="evenodd" d="M6.12149 4.27147C6.40104 4.03185 6.82191 4.06423 7.06152 4.34378L12.3949 10.566C12.6088 10.8157 12.6088 11.1841 12.3949 11.4337L7.06152 17.6559C6.82191 17.9355 6.40104 17.9679 6.12149 17.7283C5.84194 17.4886 5.80956 17.0678 6.04918 16.7882L11.0106 10.9999L6.04918 5.2115C5.80956 4.93195 5.84194 4.51108 6.12149 4.27147ZM9.67722 4.27156C9.95677 4.03195 10.3776 4.06432 10.6173 4.34387L15.9506 10.5661C16.1646 10.8158 16.1646 11.1842 15.9506 11.4338L10.6173 17.656C10.3776 17.9356 9.95677 17.968 9.67722 17.7283C9.39767 17.4887 9.36529 17.0679 9.60491 16.7883L14.5664 11L9.60491 5.21159C9.36529 4.93204 9.39767 4.51118 9.67722 4.27156Z"/>
</g>
</svg>
