<svg width="22" height="22" viewBox="0 0 22 22" fill="none" xmlns="http://www.w3.org/2000/svg">
<g id="menu">
<path id="coolicon" d="M10.9999 18.1114C10.0181 18.1114 9.22217 17.3154 9.22217 16.3336C9.22217 15.3518 10.0181 14.5558 10.9999 14.5558C11.9818 14.5558 12.7777 15.3518 12.7777 16.3336C12.7777 17.3154 11.9818 18.1114 10.9999 18.1114ZM10.9999 12.778C10.0181 12.778 9.22217 11.9821 9.22217 11.0003C9.22217 10.0184 10.0181 9.22249 10.9999 9.22249C11.9818 9.22249 12.7777 10.0184 12.7777 11.0003C12.7777 11.4718 12.5904 11.924 12.257 12.2573C11.9236 12.5907 11.4714 12.778 10.9999 12.778ZM10.9999 7.44472C10.0181 7.44472 9.22217 6.64878 9.22217 5.66694C9.22217 4.6851 10.0181 3.88916 10.9999 3.88916C11.9818 3.88916 12.7777 4.6851 12.7777 5.66694C12.7777 6.13843 12.5904 6.59062 12.257 6.92402C11.9236 7.25742 11.4714 7.44472 10.9999 7.44472Z" fill="#4E4E54"/>
</g>
</svg>
