<svg width="33" height="32" viewBox="0 0 33 32" fill="none" xmlns="http://www.w3.org/2000/svg">
<g id="Outline / Notes / Notes">
<path id="Vector" fill-rule="evenodd" clip-rule="evenodd" d="M22.3586 2.69503L22.4473 2.7188C23.9131 3.11156 25.0747 3.4228 25.9884 3.75285C26.923 4.09046 27.6851 4.47666 28.313 5.06471C29.2272 5.92098 29.867 7.02914 30.1514 8.24903C30.3468 9.08678 30.3002 9.93989 30.1252 10.9181C29.9542 11.8744 29.643 13.036 29.2502 14.5019L28.5362 17.1663C28.1435 18.6321 27.8323 19.7937 27.5022 20.7074C27.1646 21.6419 26.7784 22.4041 26.1904 23.0319C25.3613 23.9171 24.2962 24.545 23.1221 24.8422C22.7791 25.6285 22.2782 26.3406 21.6463 26.9324C21.0184 27.5205 20.2563 27.9067 19.3217 28.2443C18.4081 28.5743 17.2465 28.8856 15.7807 29.2783L15.6921 29.3021C14.2262 29.6949 13.0646 30.0061 12.1083 30.1771C11.1301 30.352 10.277 30.3986 9.43921 30.2033C8.21932 29.9189 7.11117 29.2791 6.25489 28.3648C5.66685 27.737 5.28065 26.9749 4.94304 26.0403C4.61298 25.1266 4.30174 23.965 3.90898 22.4992L3.19504 19.8347C2.80227 18.3689 2.49101 17.2073 2.32001 16.251C2.14509 15.2728 2.0985 14.4197 2.29383 13.582C2.57827 12.3621 3.21806 11.2539 4.1323 10.3976C4.76015 9.8096 5.52226 9.4234 6.45685 9.08579C7.37052 8.75573 8.53213 8.44449 9.99796 8.05173L10.0423 8.03985C10.3949 7.94537 10.7285 7.85612 11.0444 7.77266C11.5666 5.90716 12.0261 4.58843 12.9216 3.6323C13.7778 2.71806 14.886 2.07827 16.1059 1.79383C16.9436 1.5985 17.7967 1.64509 18.7749 1.82001C19.7312 1.99101 20.8928 2.30226 22.3586 2.69503ZM10.4401 10.0038C8.98293 10.3944 7.93882 10.6769 7.13635 10.9668C6.32379 11.2603 5.84669 11.5322 5.49949 11.8574C4.87395 12.4432 4.4362 13.2015 4.24159 14.0361C4.13356 14.4994 4.1367 15.0485 4.28878 15.899C4.44305 16.7617 4.73148 17.8414 5.13877 19.3614L5.82896 21.9372C6.23624 23.4572 6.5263 24.5365 6.82407 25.3608C7.1176 26.1734 7.38943 26.6504 7.71462 26.9977C8.30049 27.6232 9.0587 28.0609 9.89337 28.2556C10.3566 28.3636 10.9057 28.3604 11.7562 28.2084C12.6189 28.0541 13.6987 27.7657 15.2187 27.3584C16.7387 26.9511 17.8179 26.661 18.6422 26.3633C19.4548 26.0697 19.9319 25.7979 20.2791 25.4727C20.4625 25.3009 20.6298 25.1143 20.7796 24.9154C20.5408 24.8817 20.2952 24.8388 20.041 24.7882C19.1453 24.6101 18.0692 24.3218 16.7412 23.9659L16.6646 23.9454C15.1988 23.5527 14.0372 23.2414 13.1235 22.9114C12.1889 22.5737 11.4268 22.1875 10.799 21.5995C9.88473 20.7432 9.24494 19.6351 8.9605 18.4152C8.76516 17.5774 8.81176 16.7243 8.98667 15.7461C9.15767 14.7898 9.46893 13.6282 9.86171 12.1624L10.4401 10.0038ZM18.4229 3.78878C17.5724 3.6367 17.0233 3.63356 16.56 3.74159C15.7254 3.9362 14.9672 4.37395 14.3813 4.99949C13.7998 5.62032 13.442 6.57945 12.8197 8.85772C12.7185 9.22799 12.6116 9.62705 12.4956 10.0599L11.8054 12.6357C11.3982 14.1557 11.1097 15.2354 10.9554 16.0982C10.8034 16.9486 10.8002 17.4977 10.9083 17.961C11.1029 18.7957 11.5406 19.5539 12.1662 20.1398C12.5134 20.465 12.9905 20.7368 13.803 21.0303C14.6273 21.3281 15.7066 21.6182 17.2266 22.0254C18.5938 22.3918 19.6071 22.6628 20.431 22.8266C21.2514 22.9897 21.8081 23.0298 22.2643 22.9735C22.3636 22.9612 22.4589 22.9443 22.5519 22.9226C23.3866 22.728 24.1448 22.2903 24.7306 21.6647C25.0558 21.3175 25.3277 20.8404 25.6212 20.0279C25.919 19.2036 26.209 18.1243 26.6163 16.6043L27.3065 14.0285C27.7138 12.5085 28.0022 11.4288 28.1565 10.566C28.3086 9.71556 28.3117 9.16646 28.2037 8.70318C28.0091 7.86852 27.5713 7.11031 26.9458 6.52444C26.5986 6.19925 26.1215 5.92741 25.3089 5.63389C24.4846 5.33612 23.4053 5.04606 21.8853 4.63877C20.3653 4.23148 19.2856 3.94305 18.4229 3.78878ZM15.2366 13.0746C15.3796 12.5411 15.9279 12.2245 16.4614 12.3675L22.9009 14.0929C23.4343 14.2359 23.7509 14.7842 23.608 15.3177C23.465 15.8511 22.9167 16.1677 22.3832 16.0248L15.9437 14.2993C15.4103 14.1564 15.0937 13.6081 15.2366 13.0746ZM14.2008 16.9382C14.3438 16.4047 14.8921 16.0881 15.4256 16.2311L19.2893 17.2664C19.8227 17.4093 20.1393 17.9576 19.9964 18.4911C19.8534 19.0246 19.3051 19.3412 18.7716 19.1982L14.9079 18.1629C14.3745 18.02 14.0579 17.4717 14.2008 16.9382Z" fill="#38383B"/>
</g>
</svg>
